# xmcd CD database file
# Copyright (C) 1997 Ti Kan
# 
# Track frame offsets:
#     150
#     14605
#     30528
#     44085
#     55698
#     69878
#     86255
#     98810
#     115278
#     126803
#     142400
#     156508
#     171800
# 
# Disc length: 2484 seconds
# 
# Revision: 1
# Processed by: cddbd v1.4b41PL1 Copyright (c) Steve Scherf et al.
# Submitted via: DiscPlay 4.0.4
# 
DISCID=b309b20d
DTITLE=MICKEY GILLEY - TALK TO ME
DYEAR=1900
DGENRE=
TTITLE0=YOU DON'T KNOW ME
TTITLE1=TALK TO ME
TTITLE2=I OVERLOOKED AN ORCHID
TTITLE3=WINDOW UP ABOVE
TTITLE4=CRAZY ARMS
TTITLE5=A HEADACHE TOMARROW
TTITLE6=CITY LIGHTS
TTITLE7=LONELY NIGHTS
TTITLE8=HONKY TONK WINE
TTITLE9=TEXAS HEARTACHE NUMBER ONE
TTITLE10=JUST LONG ENOUGH TO SAY GOODBYE
TTITLE11=SHE REMINDED ME OF YOU
TTITLE12=PARADISE TONIGHT
EXTD=
EXTT0=
EXTT1=
EXTT2=
EXTT3=
EXTT4=
EXTT5=
EXTT6=
EXTT7=
EXTT8=
EXTT9=
EXTT10=
EXTT11=
EXTT12=
PLAYORDER=
